<svg xmlns="http://www.w3.org/2000/svg" width="24" height="24" viewBox="0 0 24 24" fill="none">
<path d="M7.8 2H16.2C19.4032 2 22 4.59675 22 7.8V16.2C22 19.4033 19.4032 22 16.2 22H7.8C4.59675 22 2 19.4033 2 16.2V7.8C2 4.59675 4.59675 2 7.8 2ZM7.6 3.99998C5.61177 3.99998 4 5.61176 4 7.59998V16.4C4 18.3882 5.61177 20 7.6 20H16.4C18.3882 20 20 18.3882 20 16.4V7.59998C20 5.61176 18.3882 3.99998 16.4 3.99998H7.6ZM17.25 5.49998C17.9404 5.49998 18.5 6.05963 18.5 6.74998C18.5 7.44034 17.9404 7.99998 17.25 7.99998C16.5596 7.99998 16 7.44034 16 6.74998C16 6.05963 16.5596 5.49998 17.25 5.49998ZM12 6.99998C14.7614 6.99998 17 9.23856 17 12C17 14.7614 14.7614 17 12 17C9.23857 17 7 14.7614 7 12C7 9.23856 9.23857 6.99998 12 6.99998ZM12 8.99998C10.3431 8.99998 9 10.3432 9 12C9 13.6569 10.3431 15 12 15C13.6569 15 15 13.6569 15 12C15 10.3432 13.6569 8.99998 12 8.99998Z" fill="white"/>
</svg>